<svg viewBox="0,0,1000,1064" width="1000" height="1064" xmlns="http://www.w3.org/2000/svg" xmlns:xlink="http://www.w3.org/1999/xlink"><g><rect fill="rgb(26, 26, 26)" x="531" y="58" width="399" height="18"/><rect fill="rgb(26, 26, 26)" x="531" y="78" width="385" height="18"/><rect fill="rgb(26, 26, 26)" x="531" y="98" width="162" height="18"/><rect fill="rgb(26, 26, 26)" x="531" y="118" width="78" height="18"/><rect fill="rgb(26, 26, 26)" x="531" y="138" width="52" height="18"/><rect fill="rgb(26, 26, 26)" x="531" y="158" width="31" height="18"/><rect fill="rgb(26, 26, 26)" x="531" y="178" width="21" height="18"/><rect fill="rgb(26, 26, 26)" x="531" y="198" width="14" height="18"/><rect fill="rgb(26, 26, 26)" x="531" y="218" width="11" height="18"/><rect fill="rgb(26, 26, 26)" x="531" y="238" width="10" height="18"/><rect fill="rgb(26, 26, 26)" x="531" y="258" width="9" height="18"/><rect fill="rgb(26, 26, 26)" x="531" y="278" width="7" height="18"/><rect fill="rgb(26, 26, 26)" x="531" y="298" width="5" height="18"/><rect fill="rgb(26, 26, 26)" x="531" y="318" width="5" height="18"/><rect fill="rgb(26, 26, 26)" x="531" y="338" width="1" height="18"/><rect fill="rgb(26, 26, 26)" x="531" y="358" width="0" height="18"/><rect fill="rgb(26, 26, 26)" x="531" y="378" width="0" height="18"/><rect fill="rgb(103, 0, 31)" x="531" y="398" width="0" height="18"/><rect fill="rgb(103, 0, 31)" x="531" y="418" width="0" height="18"/><rect fill="rgb(103, 0, 31)" x="530" y="438" width="1" height="18"/><rect fill="rgb(103, 0, 31)" x="530" y="458" width="1" height="18"/><rect fill="rgb(103, 0, 31)" x="530" y="478" width="1" height="18"/><rect fill="rgb(103, 0, 31)" x="530" y="498" width="1" height="18"/><rect fill="rgb(103, 0, 31)" x="530" y="518" width="1" height="18"/><rect fill="rgb(103, 0, 31)" x="530" y="538" width="1" height="18"/><rect fill="rgb(103, 0, 31)" x="529" y="558" width="2" height="18"/><rect fill="rgb(103, 0, 31)" x="529" y="578" width="2" height="18"/><rect fill="rgb(103, 0, 31)" x="529" y="598" width="2" height="18"/><rect fill="rgb(103, 0, 31)" x="529" y="618" width="2" height="18"/><rect fill="rgb(103, 0, 31)" x="529" y="638" width="2" height="18"/><rect fill="rgb(103, 0, 31)" x="529" y="658" width="2" height="18"/><rect fill="rgb(103, 0, 31)" x="528" y="678" width="3" height="18"/><rect fill="rgb(103, 0, 31)" x="527" y="698" width="4" height="18"/><rect fill="rgb(103, 0, 31)" x="523" y="718" width="8" height="18"/><rect fill="rgb(103, 0, 31)" x="521" y="738" width="10" height="18"/><rect fill="rgb(103, 0, 31)" x="520" y="758" width="11" height="18"/><rect fill="rgb(103, 0, 31)" x="519" y="778" width="12" height="18"/><rect fill="rgb(103, 0, 31)" x="519" y="798" width="12" height="18"/><rect fill="rgb(103, 0, 31)" x="509" y="818" width="22" height="18"/><rect fill="rgb(103, 0, 31)" x="506" y="838" width="25" height="18"/><rect fill="rgb(103, 0, 31)" x="467" y="858" width="64" height="18"/><rect fill="rgb(103, 0, 31)" x="448" y="878" width="83" height="18"/><rect fill="rgb(103, 0, 31)" x="446" y="898" width="85" height="18"/><rect fill="rgb(103, 0, 31)" x="443" y="918" width="88" height="18"/><rect fill="rgb(103, 0, 31)" x="405" y="938" width="126" height="18"/><rect fill="rgb(103, 0, 31)" x="362" y="958" width="169" height="18"/><rect fill="rgb(103, 0, 31)" x="70" y="978" width="461" height="18"/></g><g font-family="Saira" font-weight="bold" font-size="12"><text text-anchor="start" x="934" y="67" dy="0.45em">United States</text><text text-anchor="start" x="920" y="87" dy="0.45em">Japan</text><text text-anchor="start" x="697" y="107" dy="0.45em">Germany</text><text text-anchor="start" x="613" y="127" dy="0.45em">United Kingdom</text><text text-anchor="start" x="587" y="147" dy="0.45em">France</text><text text-anchor="start" x="566" y="167" dy="0.45em">Netherlands</text><text text-anchor="start" x="556" y="187" dy="0.45em">Sweden</text><text text-anchor="start" x="549" y="207" dy="0.45em">Norway</text><text text-anchor="start" x="546" y="227" dy="0.45em">Canada</text><text text-anchor="start" x="545" y="247" dy="0.45em">Switzerland</text><text text-anchor="start" x="544" y="267" dy="0.45em">Denmark</text><text text-anchor="start" x="542" y="287" dy="0.45em">Belgium</text><text text-anchor="start" x="540" y="307" dy="0.45em">Spain</text><text text-anchor="start" x="540" y="327" dy="0.45em">Italy</text><text text-anchor="start" x="536" y="347" dy="0.45em">Finland</text><text text-anchor="start" x="535" y="367" dy="0.45em">Austria</text><text text-anchor="start" x="535" y="387" dy="0.45em">Monaco</text><text text-anchor="end" x="527" y="407" dy="0.45em">Liechtenstein</text><text text-anchor="end" x="527" y="427" dy="0.45em">Iceland</text><text text-anchor="end" x="526" y="447" dy="0.45em">Portugal</text><text text-anchor="end" x="526" y="467" dy="0.45em">Australia</text><text text-anchor="end" x="526" y="487" dy="0.45em">New Zealand</text><text text-anchor="end" x="526" y="507" dy="0.45em">Slovenia</text><text text-anchor="end" x="526" y="527" dy="0.45em">United Arab Emirates</text><text text-anchor="end" x="526" y="547" dy="0.45em">Estonia</text><text text-anchor="end" x="525" y="567" dy="0.45em">Latvia</text><text text-anchor="end" x="525" y="587" dy="0.45em">Luxembourg</text><text text-anchor="end" x="525" y="607" dy="0.45em">Greece</text><text text-anchor="end" x="525" y="627" dy="0.45em">Lithuania</text><text text-anchor="end" x="525" y="647" dy="0.45em">Qatar</text><text text-anchor="end" x="525" y="667" dy="0.45em">Ireland</text><text text-anchor="end" x="524" y="687" dy="0.45em">Slovak Republic</text><text text-anchor="end" x="523" y="707" dy="0.45em">Cyprus</text><text text-anchor="end" x="519" y="727" dy="0.45em">Czech Republic</text><text text-anchor="end" x="517" y="747" dy="0.45em">Hungary</text><text text-anchor="end" x="516" y="767" dy="0.45em">Saudi Arabia</text><text text-anchor="end" x="515" y="787" dy="0.45em">Taiwan</text><text text-anchor="end" x="515" y="807" dy="0.45em">Romania</text><text text-anchor="end" x="505" y="827" dy="0.45em">Kuwait</text><text text-anchor="end" x="502" y="847" dy="0.45em">Chile</text><text text-anchor="end" x="463" y="867" dy="0.45em">South Africa</text><text text-anchor="end" x="444" y="887" dy="0.45em">Korea</text><text text-anchor="end" x="442" y="907" dy="0.45em">Poland</text><text text-anchor="end" x="439" y="927" dy="0.45em">Colombia</text><text text-anchor="end" x="401" y="947" dy="0.45em">Brazil</text><text text-anchor="end" x="358" y="967" dy="0.45em">Thailand</text><text text-anchor="end" x="66" y="987" dy="0.45em">India</text></g><g transform="translate(0,1034)" fill="none" font-size="10" font-family="sans-serif" text-anchor="middle"><path class="domain" stroke="currentColor" d="M70.5,-6V0.5H930.5V-6"/><g class="tick" opacity="1" transform="translate(118.5,0)"><line stroke="currentColor" y2="-6"/><text fill="currentColor" y="-9" dy="0em">−120.0G</text></g><g class="tick" opacity="1" transform="translate(187.5,0)"><line stroke="currentColor" y2="-6"/><text fill="currentColor" y="-9" dy="0em">−100.0G</text></g><g class="tick" opacity="1" transform="translate(256.5,0)"><line stroke="currentColor" y2="-6"/><text fill="currentColor" y="-9" dy="0em">−80.0G</text></g><g class="tick" opacity="1" transform="translate(324.5,0)"><line stroke="currentColor" y2="-6"/><text fill="currentColor" y="-9" dy="0em">−60.0G</text></g><g class="tick" opacity="1" transform="translate(393.5,0)"><line stroke="currentColor" y2="-6"/><text fill="currentColor" y="-9" dy="0em">−40.0G</text></g><g class="tick" opacity="1" transform="translate(462.5,0)"><line stroke="currentColor" y2="-6"/><text fill="currentColor" y="-9" dy="0em">−20.0G</text></g><g class="tick" opacity="1" transform="translate(531.5,0)"><line stroke="currentColor" y2="-6"/><text fill="currentColor" y="-9" dy="0em">0.0G</text></g><g class="tick" opacity="1" transform="translate(600.5,0)"><line stroke="currentColor" y2="-6"/><text fill="currentColor" y="-9" dy="0em">20.0G</text></g><g class="tick" opacity="1" transform="translate(668.5,0)"><line stroke="currentColor" y2="-6"/><text fill="currentColor" y="-9" dy="0em">40.0G</text></g><g class="tick" opacity="1" transform="translate(737.5,0)"><line stroke="currentColor" y2="-6"/><text fill="currentColor" y="-9" dy="0em">60.0G</text></g><g class="tick" opacity="1" transform="translate(806.5,0)"><line stroke="currentColor" y2="-6"/><text fill="currentColor" y="-9" dy="0em">80.0G</text></g><g class="tick" opacity="1" transform="translate(875.5,0)"><line stroke="currentColor" y2="-6"/><text fill="currentColor" y="-9" dy="0em">100.0G</text></g><text fill="black" font-family="Saira" font-weight="bold" font-size="20px" x="500" y="20">Net Amount (Defined as : Donated Amount - Received Amount)</text></g><g transform="translate(0,30)" fill="none" font-size="10" font-family="sans-serif" text-anchor="middle"><path class="domain" stroke="currentColor" d="M70.5,6V0.5H930.5V6"/><g class="tick" opacity="1" transform="translate(118.5,0)"><line stroke="currentColor" y2="6"/><text fill="currentColor" y="9" dy="0.71em">−120.0G</text></g><g class="tick" opacity="1" transform="translate(187.5,0)"><line stroke="currentColor" y2="6"/><text fill="currentColor" y="9" dy="0.71em">−100.0G</text></g><g class="tick" opacity="1" transform="translate(256.5,0)"><line stroke="currentColor" y2="6"/><text fill="currentColor" y="9" dy="0.71em">−80.0G</text></g><g class="tick" opacity="1" transform="translate(324.5,0)"><line stroke="currentColor" y2="6"/><text fill="currentColor" y="9" dy="0.71em">−60.0G</text></g><g class="tick" opacity="1" transform="translate(393.5,0)"><line stroke="currentColor" y2="6"/><text fill="currentColor" y="9" dy="0.71em">−40.0G</text></g><g class="tick" opacity="1" transform="translate(462.5,0)"><line stroke="currentColor" y2="6"/><text fill="currentColor" y="9" dy="0.71em">−20.0G</text></g><g class="tick" opacity="1" transform="translate(531.5,0)"><line stroke="currentColor" y2="6"/><text fill="currentColor" y="9" dy="0.71em">0.0G</text></g><g class="tick" opacity="1" transform="translate(600.5,0)"><line stroke="currentColor" y2="6"/><text fill="currentColor" y="9" dy="0.71em">20.0G</text></g><g class="tick" opacity="1" transform="translate(668.5,0)"><line stroke="currentColor" y2="6"/><text fill="currentColor" y="9" dy="0.71em">40.0G</text></g><g class="tick" opacity="1" transform="translate(737.5,0)"><line stroke="currentColor" y2="6"/><text fill="currentColor" y="9" dy="0.71em">60.0G</text></g><g class="tick" opacity="1" transform="translate(806.5,0)"><line stroke="currentColor" y2="6"/><text fill="currentColor" y="9" dy="0.71em">80.0G</text></g><g class="tick" opacity="1" transform="translate(875.5,0)"><line stroke="currentColor" y2="6"/><text fill="currentColor" y="9" dy="0.71em">100.0G</text></g><text font-family="Saira" font-weight="bold" font-size="20px" fill="black" x="500" y="-10">Net Amount (Defined as : Donated Amount - Received Amount)</text></g><g transform="translate(531,0)" fill="none" font-size="10" font-family="sans-serif" text-anchor="end"><path class="domain" stroke="currentColor" d="M0.5,50.5V1004.5"/><g class="tick" opacity="1" transform="translate(0,67.5)"><line stroke="currentColor" x2="0"/><text fill="currentColor" x="-6" dy="0.32em"/></g><g class="tick" opacity="1" transform="translate(0,87.5)"><line stroke="currentColor" x2="0"/><text fill="currentColor" x="-6" dy="0.32em"/></g><g class="tick" opacity="1" transform="translate(0,107.5)"><line stroke="currentColor" x2="0"/><text fill="currentColor" x="-6" dy="0.32em"/></g><g class="tick" opacity="1" transform="translate(0,127.5)"><line stroke="currentColor" x2="0"/><text fill="currentColor" x="-6" dy="0.32em"/></g><g class="tick" opacity="1" transform="translate(0,147.5)"><line stroke="currentColor" x2="0"/><text fill="currentColor" x="-6" dy="0.32em"/></g><g class="tick" opacity="1" transform="translate(0,167.5)"><line stroke="currentColor" x2="0"/><text fill="currentColor" x="-6" dy="0.32em"/></g><g class="tick" opacity="1" transform="translate(0,187.5)"><line stroke="currentColor" x2="0"/><text fill="currentColor" x="-6" dy="0.32em"/></g><g class="tick" opacity="1" transform="translate(0,207.5)"><line stroke="currentColor" x2="0"/><text fill="currentColor" x="-6" dy="0.32em"/></g><g class="tick" opacity="1" transform="translate(0,227.5)"><line stroke="currentColor" x2="0"/><text fill="currentColor" x="-6" dy="0.32em"/></g><g class="tick" opacity="1" transform="translate(0,247.5)"><line stroke="currentColor" x2="0"/><text fill="currentColor" x="-6" dy="0.32em"/></g><g class="tick" opacity="1" transform="translate(0,267.5)"><line stroke="currentColor" x2="0"/><text fill="currentColor" x="-6" dy="0.32em"/></g><g class="tick" opacity="1" transform="translate(0,287.5)"><line stroke="currentColor" x2="0"/><text fill="currentColor" x="-6" dy="0.32em"/></g><g class="tick" opacity="1" transform="translate(0,307.5)"><line stroke="currentColor" x2="0"/><text fill="currentColor" x="-6" dy="0.32em"/></g><g class="tick" opacity="1" transform="translate(0,327.5)"><line stroke="currentColor" x2="0"/><text fill="currentColor" x="-6" dy="0.32em"/></g><g class="tick" opacity="1" transform="translate(0,347.5)"><line stroke="currentColor" x2="0"/><text fill="currentColor" x="-6" dy="0.32em"/></g><g class="tick" opacity="1" transform="translate(0,367.5)"><line stroke="currentColor" x2="0"/><text fill="currentColor" x="-6" dy="0.32em"/></g><g class="tick" opacity="1" transform="translate(0,387.5)"><line stroke="currentColor" x2="0"/><text fill="currentColor" x="-6" dy="0.32em"/></g><g class="tick" opacity="1" transform="translate(0,407.5)"><line stroke="currentColor" x2="0"/><text fill="currentColor" x="-6" dy="0.32em"/></g><g class="tick" opacity="1" transform="translate(0,427.5)"><line stroke="currentColor" x2="0"/><text fill="currentColor" x="-6" dy="0.32em"/></g><g class="tick" opacity="1" transform="translate(0,447.5)"><line stroke="currentColor" x2="0"/><text fill="currentColor" x="-6" dy="0.32em"/></g><g class="tick" opacity="1" transform="translate(0,467.5)"><line stroke="currentColor" x2="0"/><text fill="currentColor" x="-6" dy="0.32em"/></g><g class="tick" opacity="1" transform="translate(0,487.5)"><line stroke="currentColor" x2="0"/><text fill="currentColor" x="-6" dy="0.32em"/></g><g class="tick" opacity="1" transform="translate(0,507.5)"><line stroke="currentColor" x2="0"/><text fill="currentColor" x="-6" dy="0.32em"/></g><g class="tick" opacity="1" transform="translate(0,527.5)"><line stroke="currentColor" x2="0"/><text fill="currentColor" x="-6" dy="0.32em"/></g><g class="tick" opacity="1" transform="translate(0,547.5)"><line stroke="currentColor" x2="0"/><text fill="currentColor" x="-6" dy="0.32em"/></g><g class="tick" opacity="1" transform="translate(0,567.5)"><line stroke="currentColor" x2="0"/><text fill="currentColor" x="-6" dy="0.32em"/></g><g class="tick" opacity="1" transform="translate(0,587.5)"><line stroke="currentColor" x2="0"/><text fill="currentColor" x="-6" dy="0.32em"/></g><g class="tick" opacity="1" transform="translate(0,607.5)"><line stroke="currentColor" x2="0"/><text fill="currentColor" x="-6" dy="0.32em"/></g><g class="tick" opacity="1" transform="translate(0,627.5)"><line stroke="currentColor" x2="0"/><text fill="currentColor" x="-6" dy="0.32em"/></g><g class="tick" opacity="1" transform="translate(0,647.5)"><line stroke="currentColor" x2="0"/><text fill="currentColor" x="-6" dy="0.32em"/></g><g class="tick" opacity="1" transform="translate(0,667.5)"><line stroke="currentColor" x2="0"/><text fill="currentColor" x="-6" dy="0.32em"/></g><g class="tick" opacity="1" transform="translate(0,687.5)"><line stroke="currentColor" x2="0"/><text fill="currentColor" x="-6" dy="0.32em"/></g><g class="tick" opacity="1" transform="translate(0,707.5)"><line stroke="currentColor" x2="0"/><text fill="currentColor" x="-6" dy="0.32em"/></g><g class="tick" opacity="1" transform="translate(0,727.5)"><line stroke="currentColor" x2="0"/><text fill="currentColor" x="-6" dy="0.32em"/></g><g class="tick" opacity="1" transform="translate(0,747.5)"><line stroke="currentColor" x2="0"/><text fill="currentColor" x="-6" dy="0.32em"/></g><g class="tick" opacity="1" transform="translate(0,767.5)"><line stroke="currentColor" x2="0"/><text fill="currentColor" x="-6" dy="0.32em"/></g><g class="tick" opacity="1" transform="translate(0,787.5)"><line stroke="currentColor" x2="0"/><text fill="currentColor" x="-6" dy="0.32em"/></g><g class="tick" opacity="1" transform="translate(0,807.5)"><line stroke="currentColor" x2="0"/><text fill="currentColor" x="-6" dy="0.32em"/></g><g class="tick" opacity="1" transform="translate(0,827.5)"><line stroke="currentColor" x2="0"/><text fill="currentColor" x="-6" dy="0.32em"/></g><g class="tick" opacity="1" transform="translate(0,847.5)"><line stroke="currentColor" x2="0"/><text fill="currentColor" x="-6" dy="0.32em"/></g><g class="tick" opacity="1" transform="translate(0,867.5)"><line stroke="currentColor" x2="0"/><text fill="currentColor" x="-6" dy="0.32em"/></g><g class="tick" opacity="1" transform="translate(0,887.5)"><line stroke="currentColor" x2="0"/><text fill="currentColor" x="-6" dy="0.32em"/></g><g class="tick" opacity="1" transform="translate(0,907.5)"><line stroke="currentColor" x2="0"/><text fill="currentColor" x="-6" dy="0.32em"/></g><g class="tick" opacity="1" transform="translate(0,927.5)"><line stroke="currentColor" x2="0"/><text fill="currentColor" x="-6" dy="0.32em"/></g><g class="tick" opacity="1" transform="translate(0,947.5)"><line stroke="currentColor" x2="0"/><text fill="currentColor" x="-6" dy="0.32em"/></g><g class="tick" opacity="1" transform="translate(0,967.5)"><line stroke="currentColor" x2="0"/><text fill="currentColor" x="-6" dy="0.32em"/></g><g class="tick" opacity="1" transform="translate(0,987.5)"><line stroke="currentColor" x2="0"/><text fill="currentColor" x="-6" dy="0.32em"/></g></g><text x="225" y="80" font-family="Saira" font-weight="bold" text-anchor="middle" dominant-baseline="hanging">Viz 1: The amount donated and recieved by countries</text></svg>